<?xml version="1.0" encoding="utf-8"?>
<!-- Generator: Adobe Illustrator 15.1.0, SVG Export Plug-In . SVG Version: 6.00 Build 0)  -->
<!DOCTYPE svg PUBLIC "-//W3C//DTD SVG 1.1//EN" "http://www.w3.org/Graphics/SVG/1.1/DTD/svg11.dtd">
<svg version="1.1" id="Warstwa_1" xmlns="http://www.w3.org/2000/svg" xmlns:xlink="http://www.w3.org/1999/xlink" x="0px" y="0px"
	 width="500px" height="156px" viewBox="0 0 500 156" enable-background="new 0 0 500 156" xml:space="preserve">
<g>
	<path fill="#00ADEE" d="M57.59,144.075c0,0.687-0.516,1.545-1.718,1.545H33.229c-1.2,0-1.714-0.858-1.714-1.545V37.717
		c-6.007,2.057-11.838,4.459-17.497,6.52c-0.86,0.171-1.89-0.171-2.23-1.031L4.234,27.251c-0.34-0.858-0.168-1.544,0.86-2.058
		L36.144,8.38h19.728c1.202,0,1.718,0.86,1.718,1.546V144.075z"/>
	<path fill="#00ADEE" d="M108.197,32.742H66.68c-1.201,0-1.889-0.86-1.889-1.546V9.926c0-0.86,0.688-1.544,1.889-1.544h77.711
		c1.542,0,2.404,1.03,1.721,2.4L117.63,60.877c17.843,5.314,27.963,20.925,27.963,42.542c0,29.85-21.446,42.201-43.743,42.201
		c-22.13,0-41.518-15.439-41.518-39.971c0-0.856,0.858-1.543,1.889-1.543h21.958c0.856,0,1.711,0.687,1.711,1.543
		c0,9.261,7.894,15.094,15.96,15.094c11.666,0,17.666-9.605,17.666-18.869c0-11.666-7.203-20.071-18.183-20.93H83.148
		c-1.544,0-2.398-1.2-1.711-2.4L108.197,32.742z"/>
	<path fill="#404041" d="M213.526,104.448c0,35.201-27.688,41.172-48.169,41.172h-13.489c-0.615,0-1.13-0.516-1.13-0.928v-32.318
		h15.753v18.117c9.975,0.41,31.179-0.62,31.179-26.043c0-19.558-13.275-27.07-31.179-26.144v18.222h-15.753v-32.32
		c0-0.412,0.515-0.929,1.13-0.929h13.489C185.422,63.277,213.526,67.911,213.526,104.448"/>
	<path fill="#404041" d="M255.83,145.62h-37.98c-0.62,0-1.135-0.516-1.135-0.928V64.206c0-0.412,0.515-0.929,1.135-0.929h37.98
		v14.927h-23.367v18.629h32.324c0.615,0,1.125,0.41,1.125,0.927v13.069c0,0.411-0.51,0.93-1.125,0.93h-32.324v18.526h23.367V145.62z
		"/>
	<path fill="#404041" d="M319.539,121.638c0,15.439-12.35,23.978-25.523,23.978h-0.1v-14.817h0.1c5.457,0,10.293-3.705,10.293-9.16
		c0-6.073-5.664-9.777-10.293-9.985c-0.715,0-6.279,0-12.25-2.776c-8.543-3.911-13.381-11.221-13.381-20.79
		c0-15.443,12.457-24.809,25.631-24.809c14.1,0,25.01,9.472,25.219,23.467c0.102,0.31-0.418,0.824-1.137,0.824H305.23
		c-0.615,0-1.129-0.515-1.129-0.824c-0.201-5.863-4.738-8.642-10.086-8.642c-5.66,0-10.295,3.394-10.295,9.983
		c0,5.967,5.043,9.056,10.295,9.056c0.514,0,6.279,0,12.145,2.778C314.807,103.933,319.539,111.962,319.539,121.638"/>
	<path fill="#404041" d="M356.797,132.445v12.249c0,0.41-0.402,0.924-1.131,0.924h-32.418c-0.621,0-1.131-0.514-1.131-0.924v-12.249
		c0-0.516,0.51-0.926,1.131-0.926h8.441v-29.13V77.38v-14.1h15.744v14.1v25.01v29.13h8.232
		C356.395,131.52,356.797,131.93,356.797,132.445"/>
	<path fill="#404041" d="M405.59,78.412c-9.988-0.416-31.188,0.615-31.188,26.036c0,19.556,13.273,27.069,31.188,26.143v-18.217
		v-2.369h-15.854V94.259h15.854h15.746v15.746v2.369v32.318c0,0.412-0.412,0.923-1.135,0.923h-13.379
		c-20.176,0-48.27-4.628-48.27-41.167c0-35.199,27.789-41.171,48.27-41.171h13.379c0.723,0,1.135,0.517,1.135,0.926v14.208H405.59z"
		/>
	<path fill="#404041" d="M493.795,64.206v80.486c0,0.412-0.408,0.928-1.133,0.928h-13.584c-0.207,0-0.824-0.104-0.926-0.309
		l-37.873-54.24v34.787h-15.75V64.206c0-0.412,0.514-0.929,1.029-0.929h13.688c0.209,0,0.824,0.104,0.926,0.311l37.98,54.239V64.206
		c0-0.412,0.514-0.929,1.238-0.929h13.271C493.387,63.277,493.795,63.794,493.795,64.206"/>
	<path fill-rule="evenodd" clip-rule="evenodd" fill="#00ADEE" d="M339.77,29.505c7.367,0,13.336,5.971,13.336,13.33
		c0,7.362-5.969,13.331-13.336,13.331c-7.357,0-13.318-5.969-13.318-13.331C326.451,35.476,332.412,29.505,339.77,29.505"/>
</g>
</svg>
