<svg xmlns="http://www.w3.org/2000/svg" width="180" height="100" viewBox="0 0 180 100">
  <path fill="#171F2B" d="M0 0h180v100H0z"/>
  <g fill="#FFF">
    <path d="M56.612 30.083c-.545 0-2.567.467-4.707 2.684-2.412 2.489-3.146 6.302-3.146 8.83 0 1.322-1.759 1.906-2.759 2.451V45h3v12.546c0 .582-.401 1.454-1.84 1.454H46v.808c1-.045 2.828-.084 4.423-.084 1.672 0 3.577.039 4.577.084V59h-1.267C52.878 59 52 58.791 52 57.856V45h5v-2h-5v-5.954c0-1.595.186-4.396 2.56-4.396 1.322 0 1.298.545 2.465.545.934 0 1.35-.662 1.35-1.517 0-1.44-1.102-1.595-1.763-1.595zM63.072 38.264c1.05 0 1.906-.894 1.906-1.945 0-1.05-.895-1.867-1.906-1.867-.973 0-1.906.895-1.906 1.867 0 1.012.894 1.945 1.906 1.945zM61.588 57.51c0 1.284-.778 1.284-1.867 1.284h-.701v1.017c1.4-.045 2.801-.084 4.201-.084 1.401 0 2.762.084 4.124.084v-1.017h-.7c-1.089 0-1.945 0-1.945-1.284V42.419c0-.312-.117-.389-.234-.389-1.867.817-3.461 1.322-5.134 1.867v.739c1.829.739 2.256 1.128 2.256 2.567V57.51zM38.913 58.052c-3.111 0-5.489-3.067-5.718-6.764-.082-1.32-.077-2.288 0-2.288h10.297c.636 0 1.03.022 1.022-.901-.037-4.123-3.423-6.09-6.574-6.09-2.723 0-7.857 2.265-7.857 9.889 0 2.489 1.245 8.491 7.429 8.491 3.19 0 5.407-2.027 7.196-4.4l-.544-.544c-1.439 1.439-3.111 2.607-5.251 2.607zm-1.128-14.693c2.178 0 3.384 1.64 3.384 3.624 0 .467-.117 1.017-1.089 1.017h-6.768c.466-3 2.1-4.641 4.473-4.641zM91.191 58.052c-3.112 0-5.485-3.067-5.719-6.764-.077-1.321-.077-2.288 0-2.288H95.77c.686 0 1.023.022 1.023-.901-.039-4.123-3.54-6.09-6.613-6.09-2.256 0-4.162.942-5.835 2.887-1.672-1.984-3.968-2.874-6.613-2.874-5.602 0-8.713 4.32-8.713 8.987 0 3.431 1.509 6.688 4.226 8.312-1.527.669-3.156 1.309-3.156 3.005 0 1.788 1.789 2.917 3.423 3.469-2.373.468-4.551 1.984-4.551 4.474 0 2.101 2.412 4.356 7.352 4.356 8.286 0 10.309-5.95 10.309-7.468 0-2.925-1.984-3.935-5.329-3.935-1.556 0-3.462-.039-5.368-.039-2.568 0-2.723-1.207-2.723-1.791 0-.761.283-1.237.788-1.682.967.437 2.063.684 3.276.684 2.606 0 4.94-1.447 6.497-3.469 1.4 2.021 3.384 3.469 5.912 3.469 3.189 0 5.642-2.186 7.236-4.402l-.545-.545c-1.479 1.438-3.152 2.605-5.175 2.605zm-1.089-14.693c2.179 0 3.346 1.64 3.346 3.623 0 .467-.117 1.018-1.052 1.018h-6.807c.506-3 2.14-4.641 4.513-4.641zM78.258 65.754c2.061 0 5.484.311 5.484 3.151 0 3.462-4.435 4.475-6.808 4.475-2.723 0-5.135-1.284-5.135-3.969.001-3.657 3.93-3.657 6.459-3.657zm-.565-6.613c-3.89 0-5.096-5.096-5.096-8.207 0-3.113 1.089-7.664 4.979-7.664 4.006 0 5.018 4.551 5.018 7.74 0 3.191-.778 8.131-4.901 8.131zM128.062 58.052c-3.112 0-5.508-3.033-5.72-6.73-.089-1.565.043-3.835.586-5.181.733-1.809 2.151-2.871 4.006-2.871 1.564 0 2.628.824 3.102 2.024.156.393.229.667.284 1.013.109.689.119 1.426.916 1.673.92.285 2.227-.505 2.056-1.853-.072-.563-.401-1.204-1.115-1.972-1.312-1.409-3.231-2.131-5.088-2.131-2.723 0-7.858 2.256-7.858 9.88 0 2.489 1.245 8.487 7.431 8.487 3.189 0 5.406-2.029 7.197-4.402l-.546-.545c-1.44 1.441-3.113 2.608-5.251 2.608zM115 57.507V47.471c0-3.034-1.065-5.446-4.373-5.446-2.605 0-4.627 1.323-6.627 2.917v-2.529c0-.311.066-.389-.051-.389-1.866.818-3.949 1.324-4.949 1.868v.739c1 .739 2 1.128 2 2.567v10.308c0 1.284-.974 1.493-2.063 1.493H98v.808c2-.045 3.138-.083 4.539-.083 1.399 0 2.461.083 4.461.083V59h-1.139c-1.089 0-1.861-.209-1.861-1.493V45.993c1-.856 3.221-1.868 4.467-1.868 2.217 0 3.533 1.09 3.533 3.307v10.075c0 1.284-.771 1.493-1.859 1.493H109v.808c2-.045 3.139-.083 4.539-.083s2.461.083 4.461.083V59h-.936c-1.088 0-2.064-.209-2.064-1.493zM149.498 55.445c-1.441 1.439-3.112 2.606-5.253 2.606-3.112 0-5.489-3.067-5.718-6.764-.082-1.321-.078-2.288 0-2.288h10.297c.637 0 1.029.022 1.023-.901-.037-4.123-3.423-6.09-6.574-6.09-2.723 0-7.858 2.265-7.858 9.889 0 2.489 1.245 8.491 7.431 8.491 3.19 0 5.407-2.027 7.195-4.4l-.543-.543zm-6.381-12.086c2.18 0 3.386 1.64 3.386 3.623 0 .467-.119 1.018-1.091 1.018h-6.768c.465-3 2.1-4.641 4.473-4.641z"/>
  </g>
</svg>
