<svg height="52.49" viewBox="0 0 291.23 52.49" width="291.23" xmlns="http://www.w3.org/2000/svg"><g fill="#15141a"><path d="m211.468 406.055a16.246 16.246 0 1 0 16.37 16.246 16.308 16.308 0 0 0 -16.37-16.246zm0 24.917a8.672 8.672 0 1 1 8.738-8.671 8.705 8.705 0 0 1 -8.738 8.671z" transform="translate(-162.652 -396.529)"/><path d="m292.794 406.055a16.246 16.246 0 1 0 16.37 16.246 16.308 16.308 0 0 0 -16.37-16.246zm0 24.917a8.672 8.672 0 1 1 8.738-8.671 8.705 8.705 0 0 1 -8.738 8.671z" transform="translate(-154.636 -396.529)"/><path d="m425.641 406.055-8.288 20.516-8.288-20.516h-7.634l12.094 29.935h.023l-5.365 13.28h7.634l17.459-43.215z" transform="translate(-142.044 -396.779)"/><path d="m180.092 406.055a14.259 14.259 0 0 0 -14.313 14.175v18.317h7.634v-18.318a6.678 6.678 0 0 1 13.356 0v18.317h7.634v-18.317a14.258 14.258 0 0 0 -14.311-14.174z" transform="translate(-165.777 -396.529)"/><path d="m323.774 406.055a14.259 14.259 0 0 0 -14.313 14.175v18.317h7.633v-18.318a6.678 6.678 0 0 1 13.356 0v18.317h7.633v-18.317a14.259 14.259 0 0 0 -14.309-14.174z" transform="translate(-151.296 -396.529)"/><path d="m263.44 406.055a14.306 14.306 0 0 0 -10.5 4.571 14.321 14.321 0 0 0 -24.809 9.6v18.317h7.633v-18.314a6.678 6.678 0 0 1 13.355 0v18.317h7.633v-18.317a6.679 6.679 0 0 1 13.357 0v12.589 5.728h7.633v-18.317a14.258 14.258 0 0 0 -14.302-14.174z" transform="translate(-159.524 -396.529)"/><path d="m225.143 397.447a4.763 4.763 0 1 0 4.763 4.763 4.763 4.763 0 0 0 -4.763-4.763z" transform="translate(-160.253 -397.447)"/><path d="m363.887 409.516a16.371 16.371 0 1 0 0 27.654v2.544h7.633v-42.267h-7.633zm-8.738 22.566a8.738 8.738 0 1 1 8.738-8.738 8.739 8.739 0 0 1 -8.738 8.738z" transform="translate(-148.358 -397.447)"/><path d="m388.185 406.055a16.246 16.246 0 1 0 8.753 29.958v2.533h7.633v-16.246h-.017a16.308 16.308 0 0 0 -16.369-16.245zm0 24.917a8.672 8.672 0 1 1 8.738-8.671 8.705 8.705 0 0 1 -8.738 8.671z" transform="translate(-145.201 -396.529)"/></g></svg>